<?xml version="1.0" standalone="no"?>
<!DOCTYPE svg PUBLIC "-//W3C//DTD SVG 20010904//EN"
 "http://www.w3.org/TR/2001/REC-SVG-20010904/DTD/svg10.dtd">
<svg version="1.0" xmlns="http://www.w3.org/2000/svg"
 width="584.000000pt" height="584.000000pt" viewBox="0 0 584.000000 584.000000"
 preserveAspectRatio="xMidYMid meet">
<metadata>
Created by potrace 1.14, written by Peter Selinger 2001-2017
</metadata>
<g transform="translate(0.000000,584.000000) scale(0.100000,-0.100000)"
fill="#000000" stroke="none">
<path d="M2830 5826 c-29 -11 -303 -165 -350 -196 -8 -6 -26 -15 -40 -22 -14
-7 -32 -17 -40 -24 -8 -6 -40 -25 -70 -41 -30 -17 -80 -45 -110 -63 -30 -18
-80 -46 -110 -63 -30 -16 -60 -34 -67 -39 -7 -5 -27 -18 -45 -27 -34 -18 -269
-154 -329 -190 -19 -12 -41 -24 -49 -28 -8 -4 -46 -26 -85 -48 -38 -23 -90
-53 -115 -67 -25 -14 -101 -58 -170 -98 -69 -40 -145 -84 -170 -98 -25 -14
-142 -82 -260 -150 -118 -69 -231 -134 -250 -144 -119 -67 -163 -109 -192
-185 -17 -46 -18 -116 -15 -1433 l2 -1385 26 -50 c15 -27 40 -62 56 -76 31
-27 269 -169 284 -169 5 0 9 -3 9 -7 0 -5 10 -13 23 -19 45 -22 143 -77 169
-95 14 -11 28 -19 31 -19 3 0 55 -29 116 -65 60 -36 114 -65 118 -65 5 0 14
-5 21 -12 12 -12 101 -64 152 -90 14 -7 27 -15 30 -18 3 -4 37 -24 75 -45 39
-22 84 -47 100 -57 17 -10 53 -30 80 -44 28 -15 51 -30 53 -35 2 -5 8 -9 12
-9 5 0 59 -29 120 -65 61 -36 113 -65 115 -65 4 0 73 -41 130 -78 11 -6 27
-15 35 -19 8 -4 59 -33 113 -65 55 -32 103 -58 107 -58 5 0 15 -6 22 -13 7 -7
49 -33 93 -57 44 -23 91 -50 105 -59 53 -34 65 -41 80 -48 8 -4 49 -27 90 -52
110 -65 206 -82 284 -50 17 8 101 54 186 103 85 49 175 100 200 114 25 14 56
32 70 42 14 9 32 20 40 23 8 4 36 19 62 34 50 30 127 75 193 112 359 206 798
462 813 473 6 6 12 7 12 2 0 -5 4 -4 8 1 4 6 18 16 32 24 14 8 68 39 120 69
82 48 139 81 320 184 332 191 364 215 394 305 15 45 16 172 14 1429 l-3 1379
-24 48 c-22 45 -95 127 -113 127 -4 0 -37 18 -73 40 -36 22 -70 40 -75 40 -6
0 -10 5 -10 10 0 6 -4 10 -9 10 -9 0 -106 53 -161 88 -14 9 -27 17 -30 17 -3
0 -16 8 -30 17 -24 15 -324 189 -400 231 -19 10 -52 29 -72 41 -138 80 -577
332 -593 340 -11 6 -22 14 -25 17 -3 3 -30 19 -60 36 -126 69 -175 98 -178
105 -2 4 -7 8 -12 8 -5 0 -47 23 -95 50 -48 28 -90 50 -95 50 -5 0 -10 3 -12
8 -4 9 -217 132 -229 132 -5 0 -9 5 -9 12 0 6 -3 8 -7 5 -3 -4 -13 -1 -22 7
-9 8 -44 28 -79 46 -74 37 -174 49 -232 26z"/>
</g>
</svg>
